/* XPM */
static char * C:\Users\yuto_\Documents\vipstarcoin_1_1_2\share\pixmaps\bitcoin16_xpm[] = {
"16 16 130 2",
"  	c None",
". 	c #EBBE68",
"+ 	c #F0C162",
"@ 	c #ECBE67",
"# 	c #F1C465",
"$ 	c #FFD674",
"% 	c #FFE28E",
"& 	c #FFE699",
"* 	c #FFE290",
"= 	c #FFD878",
"- 	c #F3C664",
"; 	c #F6CB66",
"> 	c #FBE193",
", 	c #FBE296",
"' 	c #FEE598",
") 	c #FCE397",
"! 	c #E4C573",
"~ 	c #DFAA20",
"{ 	c #E3BE7C",
"] 	c #F5C964",
"^ 	c #EEC55F",
"/ 	c #F3BE3D",
"( 	c #F3BF3D",
"_ 	c #EEC560",
": 	c #F8DE8F",
"< 	c #FDE498",
"[ 	c #F1C861",
"} 	c #F4BF3C",
"| 	c #DEA916",
"1 	c #BA8C00",
"2 	c #DFAA1B",
"3 	c #F1C467",
"4 	c #FFE495",
"5 	c #F4C249",
"6 	c #F5C34B",
"7 	c #F4D785",
"8 	c #EBB100",
"9 	c #BF9000",
"0 	c #E7B548",
"a 	c #FFD673",
"b 	c #F4C34F",
"c 	c #F3C24E",
"d 	c #BE8F00",
"e 	c #BD8E00",
"f 	c #C59400",
"g 	c #D5A101",
"h 	c #EBBE6A",
"i 	c #FFE18E",
"j 	c #F4C453",
"k 	c #F6C346",
"l 	c #FEE599",
"m 	c #F4D076",
"n 	c #D39E00",
"o 	c #DFA700",
"p 	c #D19D00",
"q 	c #DCA500",
"r 	c #D5A100",
"s 	c #C19201",
"t 	c #EDBE64",
"u 	c #F0BF5E",
"v 	c #F4C556",
"w 	c #F6C345",
"x 	c #F7DC8E",
"y 	c #E9B325",
"z 	c #CA9800",
"A 	c #CC9900",
"B 	c #D09C00",
"C 	c #E5B551",
"D 	c #F0BF5D",
"E 	c #F4C558",
"F 	c #F7C241",
"G 	c #FAE296",
"H 	c #F3C556",
"I 	c #C09100",
"J 	c #C19100",
"K 	c #E7AD00",
"L 	c #C99700",
"M 	c #E3AB00",
"N 	c #D49F00",
"O 	c #E2B24E",
"P 	c #ECBE68",
"Q 	c #F4C65A",
"R 	c #F8C23E",
"S 	c #F2D07A",
"T 	c #D8A200",
"U 	c #BD8F00",
"V 	c #E9AF00",
"W 	c #D6A100",
"X 	c #DBA500",
"Y 	c #BC8E00",
"Z 	c #ECBD62",
"` 	c #FFD877",
" .	c #F4C75C",
"..	c #F7BE30",
"+.	c #EBB52C",
"@.	c #CB9800",
"#.	c #EDB200",
"$.	c #D39F00",
"%.	c #D29E01",
"&.	c #F3C666",
"*.	c #FFE597",
"=.	c #F4C85F",
"-.	c #FEBF00",
";.	c #C39300",
">.	c #DDA600",
",.	c #CC9A00",
"'.	c #E6B23F",
").	c #FCD36E",
"!.	c #F3C962",
"~.	c #DCA600",
"{.	c #C29200",
"].	c #EFB400",
"^.	c #D09D00",
"/.	c #E5AC00",
"(.	c #D9A403",
"_.	c #E3BE7B",
":.	c #FDD370",
"<.	c #D9B55A",
"[.	c #BC8D00",
"}.	c #C39200",
"|.	c #D9A402",
"1.	c #E5BC73",
"2.	c #E7B446",
"3.	c #D4A001",
"4.	c #D19E01",
"5.	c #E5B23E",
"6.	c #ECBD61",
"7.	c #E5B553",
"8.	c #E5B552",
"9.	c #EBBC5F",
"            . + + @             ",
"        # $ % & & * = -         ",
"      ; > , , ' & ) , ! ~ {     ",
"    ] ^ / ( _ : < [ } | 1 2     ",
"  3 4 ) 5 6 ) & & 7 8 1 9 9 0   ",
"  a & ' b 6 < & ) c d 9 e f g   ",
"h i & ' j k < l m n o p q r s t ",
"u & & ' v w < x y 1 z p A B d C ",
"D & & ' E F G H I J K p L M N O ",
"P * & ' Q R S T U L V W X Y 9 Z ",
"  ` & '  ...+.1 e 8 @.#.$.9 %.  ",
"  &.*.' =.-.;.9 W >.V ,.e 9 '.  ",
"    ).l !.~.e {.].^./.d 9 (.    ",
"    _.:.<.[.9 {.}.A J 9 |.1.    ",
"        2.3.I 9 9 I 4.5.        ",
"            6.7.8.9.            "};
