/* XPM */
static char * C:\Users\yuto_\Documents\vipstarcoin_1_1_2\share\pixmaps\bitcoin32_xpm[] = {
"32 32 352 2",
"  	c None",
". 	c #CDBC9C",
"+ 	c #CFBC9A",
"@ 	c #E0BD7F",
"# 	c #ECBD60",
"$ 	c #F8BE2A",
"% 	c #FEC113",
"& 	c #FFC426",
"* 	c #FFC429",
"= 	c #FEC218",
"- 	c #FABF1E",
"; 	c #F0BD54",
"> 	c #E3BD7A",
", 	c #D1BC95",
"' 	c #CEBD9E",
") 	c #E9BD66",
"! 	c #FCC11E",
"~ 	c #FFCD56",
"{ 	c #FFD977",
"] 	c #FFE18B",
"^ 	c #FFE595",
"/ 	c #FFE699",
"( 	c #FFE597",
"_ 	c #FFE28E",
": 	c #FFDB7D",
"< 	c #FFD161",
"[ 	c #FEC326",
"} 	c #EEBD54",
"| 	c #D6BC90",
"1 	c #E0BD7C",
"2 	c #FCC123",
"3 	c #FFD265",
"4 	c #FFE390",
"5 	c #FFE495",
"6 	c #FFD774",
"7 	c #FEC42B",
"8 	c #E8BD67",
"9 	c #ECBD5C",
"0 	c #FFC945",
"a 	c #FFE08B",
"b 	c #E3C065",
"c 	c #EAB106",
"d 	c #F4BE41",
"e 	c #D0BE9E",
"f 	c #EDBB53",
"g 	c #F7C853",
"h 	c #F6DC90",
"i 	c #F6DD93",
"j 	c #F6DE93",
"k 	c #FBE296",
"l 	c #FEE599",
"m 	c #FEE598",
"n 	c #FAE195",
"o 	c #EDD284",
"p 	c #BA8D0D",
"q 	c #BB8D00",
"r 	c #DEA806",
"s 	c #F7BE31",
"t 	c #D0BE9F",
"u 	c #EBBC5C",
"v 	c #F2C24D",
"w 	c #EAC25C",
"x 	c #E8BE58",
"y 	c #E7BD58",
"z 	c #E7BE58",
"A 	c #E8BE59",
"B 	c #EAC05A",
"C 	c #EFD281",
"D 	c #FDE498",
"E 	c #EFCB6E",
"F 	c #D9AA32",
"G 	c #D29D00",
"H 	c #B78900",
"I 	c #BD8E00",
"J 	c #DCA704",
"K 	c #F5BE3B",
"L 	c #E0BC7C",
"M 	c #FFC841",
"N 	c #F7DD8E",
"O 	c #F4CE6E",
"P 	c #F1C760",
"Q 	c #FCBF1A",
"R 	c #FFC000",
"S 	c #FBC01E",
"T 	c #F1C865",
"U 	c #F6DB8C",
"V 	c #FCE397",
"W 	c #F5D274",
"X 	c #F7C344",
"Y 	c #F5B800",
"Z 	c #D5A000",
"` 	c #B88A00",
" .	c #BE8F00",
"..	c #BF9000",
"+.	c #E6AE03",
"@.	c #ECBD5D",
"#.	c #CEBD9F",
"$.	c #FBC023",
"%.	c #FFE08A",
"&.	c #F7DF94",
"*.	c #EBC360",
"=.	c #ECC463",
"-.	c #F8E094",
";.	c #EDCF7E",
">.	c #F1B500",
",.	c #B58800",
"'.	c #BB8C00",
").	c #C29201",
"!.	c #F5B902",
"~.	c #DABD89",
"{.	c #E7BD6C",
"].	c #E9C56B",
"^.	c #EAC76E",
"/.	c #F9E195",
"(.	c #EFC763",
"_.	c #FBBD00",
":.	c #B98B00",
"<.	c #D4A103",
"[.	c #F3BD40",
"}.	c #FCC01F",
"|.	c #FFE28F",
"1.	c #EAC66B",
"2.	c #EBC76B",
"3.	c #FCC01B",
"4.	c #D09C00",
"5.	c #B78A00",
"6.	c #BA8C00",
"7.	c #BC8D00",
"8.	c #F4B802",
"9.	c #E0BD84",
"0.	c #FFCD52",
"a.	c #E9C76D",
"b.	c #EDC768",
"c.	c #F4DC91",
"d.	c #F4C248",
"e.	c #ECB100",
"f.	c #B68900",
"g.	c #DCA600",
"h.	c #BE8E00",
"i.	c #DDA702",
"j.	c #E9BD68",
"k.	c #EBBD61",
"l.	c #FFD876",
"m.	c #E9C770",
"n.	c #EFC766",
"o.	c #FAE296",
"p.	c #EDC96E",
"q.	c #FCBE01",
"r.	c #DAA400",
"s.	c #E4AC00",
"t.	c #BC8E00",
"u.	c #E4AB00",
"v.	c #F6B900",
"w.	c #C99802",
"x.	c #F8BE2C",
"y.	c #F7BE30",
"z.	c #FCE497",
"A.	c #E8C873",
"B.	c #EFC665",
"C.	c #FDE497",
"D.	c #EED487",
"E.	c #FBC022",
"F.	c #F8BB00",
"G.	c #EEB300",
"H.	c #D6A100",
"I.	c #E8AF00",
"J.	c #E2AA00",
"K.	c #E5AC00",
"L.	c #C09100",
"M.	c #F9BC01",
"N.	c #CFBC9E",
"O.	c #FDC00F",
"P.	c #E8C975",
"Q.	c #EEC664",
"R.	c #F5DD92",
"S.	c #F2C34F",
"T.	c #B18500",
"U.	c #E3AA00",
"V.	c #C59400",
"W.	c #D8A200",
"X.	c #CE9B00",
"Y.	c #D29E00",
"Z.	c #D49F00",
"`.	c #F1B602",
" +	c #D9BD8C",
".+	c #FFC31E",
"++	c #E8C976",
"@+	c #EEC563",
"#+	c #ECCB73",
"$+	c #FDBF02",
"%+	c #CB9800",
"&+	c #E6AD00",
"*+	c #EAB000",
"=+	c #C09000",
"-+	c #DFBD82",
";+	c #FFC31F",
">+	c #E8CA79",
",+	c #EEC561",
"'+	c #FAE196",
")+	c #EFD68A",
"!+	c #FAC02A",
"~+	c #DBA500",
"{+	c #C89600",
"]+	c #ECB200",
"^+	c #C39200",
"/+	c #F2B600",
"(+	c #DDA600",
"_+	c #FEC114",
":+	c #FFE596",
"<+	c #E8CB7B",
"[+	c #EFC55E",
"}+	c #F7DE93",
"|+	c #F1C456",
"1+	c #F4B800",
"2+	c #B28600",
"3+	c #CF9B00",
"4+	c #FCBE00",
"5+	c #E1A900",
"6+	c #DCA500",
"7+	c #F3B700",
"8+	c #EDB200",
"9+	c #E8AE00",
"0+	c #D4A000",
"a+	c #E9AF01",
"b+	c #DABD8B",
"c+	c #F9BE23",
"d+	c #E8CC7D",
"e+	c #F0C45C",
"f+	c #ECCD79",
"g+	c #FDBF06",
"h+	c #D39E00",
"i+	c #EFB400",
"j+	c #C29200",
"k+	c #E0A900",
"l+	c #BD8F00",
"m+	c #F6B901",
"n+	c #D2BB97",
"o+	c #EEBD55",
"p+	c #FFDA7D",
"q+	c #E8CD7E",
"r+	c #EFC35A",
"s+	c #ECD48A",
"t+	c #F8C032",
"u+	c #E0A800",
"v+	c #B48700",
"w+	c #FEBF00",
"x+	c #FABE1A",
"y+	c #E4BD7C",
"z+	c #FFD05E",
"A+	c #E9CE80",
"B+	c #FEC001",
"C+	c #EBBF55",
"D+	c #ECC159",
"E+	c #F7BA00",
"F+	c #B38700",
"G+	c #FDBE00",
"H+	c #F9BB00",
"I+	c #BF8F00",
"J+	c #D6A201",
"K+	c #EDBD5C",
"L+	c #CFBD9D",
"M+	c #FEC325",
"N+	c #E9CF82",
"O+	c #ECB936",
"P+	c #FDBF0B",
"Q+	c #BA8B00",
"R+	c #EEB301",
"S+	c #DFBD81",
"T+	c #EDBD5B",
"U+	c #E9D084",
"V+	c #FEC002",
"W+	c #E5AD00",
"X+	c #B38600",
"Y+	c #FABC00",
"Z+	c #CB9901",
"`+	c #F8BD28",
" @	c #D5BD92",
".@	c #FEC32A",
"+@	c #FFE392",
"@@	c #EAD085",
"#@	c #FDC004",
"$@	c #B68800",
"%@	c #FCBD00",
"&@	c #E7AE00",
"*@	c #FDBF00",
"=@	c #C49300",
"-@	c #EDB301",
";@	c #E1BD7B",
">@	c #E8BD69",
",@	c #FFCF59",
"'@	c #FFE698",
")@	c #EAD287",
"!@	c #FDBF07",
"~@	c #CD9A00",
"{@	c #EBB100",
"]@	c #DEA700",
"^@	c #D9A301",
"/@	c #F3BD45",
"(@	c #F4BE40",
"_@	c #FFD66F",
":@	c #EBD389",
"<@	c #FCBF0A",
"[@	c #F8BD1A",
"}@	c #D3BD97",
"|@	c #D0BD9D",
"1@	c #F8BF32",
"2@	c #FFD772",
"3@	c #F0D78C",
"4@	c #DBA60F",
"5@	c #D7A200",
"6@	c #E3AB00",
"7@	c #C79600",
"8@	c #CE9B01",
"9@	c #F8BC0D",
"0@	c #D9BD8B",
"a@	c #D1BD9C",
"b@	c #F6BE3A",
"c@	c #FFD162",
"d@	c #E0BF67",
"e@	c #B88B00",
"f@	c #D8A301",
"g@	c #F9BD1A",
"h@	c #D9BC8A",
"i@	c #EDBD5E",
"j@	c #F4B801",
"k@	c #D29E01",
"l@	c #CA9901",
"m@	c #F4BE44",
"n@	c #D3BD99",
"o@	c #DBBC87",
"p@	c #F5BE3D",
"q@	c #F2B701",
"r@	c #DBA501",
"s@	c #C79601",
"t@	c #C49401",
"u@	c #D6A101",
"v@	c #EDB302",
"w@	c #F9BE25",
"x@	c #E2BD7A",
"y@	c #DBBD88",
"z@	c #EABD65",
"A@	c #F9BE21",
"B@	c #F6BA01",
"C@	c #EFB401",
"D@	c #EAB001",
"E@	c #FABE10",
"F@	c #EFBD55",
"G@	c #CFBC99",
"H@	c #DABD88",
"I@	c #E3BE7B",
"J@	c #DBBD85",
"K@	c #D2BC93",
"                              . +                               ",
"                      @ # $ % & * = - ; > ,                     ",
"                ' ) ! ~ { ] ^ / / ( _ : < [ } |                 ",
"              1 2 3 4 / / / / / / / / / / 5 6 7 8               ",
"            9 0 a / / / / / / / / / / / / / / b c d e           ",
"          f g h i i i i j j k l / m n j i i o p q r s t         ",
"        u v w x y y y z A B C D / k E A y y F G H I J K         ",
"      L M N O P Q R R S T O U m / V W X R R Y Z `  ...+.@.      ",
"    #.$.%.m D &.*.R R =.-.D m / / / V ;.R >.,.'. .....).!.~.    ",
"    {.3 / / / V ].R R ^.V / / / / / /.(._.:.q ..........<.[.    ",
"    }.|./ / / V 1.R R 2.V / / / / D o 3.4.5.........6.7...8.~.  ",
"  9.0./ / / / V a.R R b.k / / / l c.d.e.f.:. .....:.g.h...i.j.  ",
"  k.l./ / / / V m.R R n.k / / / o.p.q.` r.s.t.t.:.u.v.H ..w.x.  ",
"  y.] / / / / z.A.R R B.k / / C.D.E.Z f.7.F.G.H.I.J.K.q ..L.M.N.",
"  O.^ / / / / C.P.R R Q.o./ l R.S.>.T.I 6.U.V.W.X.Y.Z.I ....`. +",
"  .+/ / / / / C.++R R @+o./ k #+$+ .6...t.%+&+7.I Z *+=+q ..e.-+",
"  ;+/ / / / / D >+R R ,+'+m )+!+~+,. .7.{+]+7.t. .,.^+/+(+:.*+@ ",
"  _+:+/ / / / D <+R R [+/.}+|+1+2+I '.3+4+5+I.6+H 7+8+9+J.0+a+b+",
"  c+_ / / / / D d+R R e+&.f+g+^+6. .I h+8+&+` i+j+k+5.'.t.l+m+n+",
"  o+p+/ / / / D q+R R r+s+t+u+v+ ...7.r.w+%+..]+v.h+ .....V.x+  ",
"  y+z+/ / / / D A+B+R C+D+E+F+I .. .j+G+K.f.]+G.H+I+......J+K+  ",
"  L+M+5 / / / m N+B+R O+P+{+:.....Q+i+H+'.h+R H.0+H ......R+S+  ",
"    T+6 / / / m U+V+R R W+X+ ...I H.R 3+I Y+>.:.'.I ....Z+`+    ",
"     @.@+@/ / m @@#@R Y+$@t... .=+%@I.$@&@*@=@ .........-@;@    ",
"      >@,@'@/ m )@!@R ~@` ....6.{@Y+I ~@R ]@q ........^@/@      ",
"        (@_@/ m :@<@*+2+ ...I Y.R h+6.E+Y 6.........X.[@}@      ",
"        |@1@2@m 3@4@Q+7.....:.H.5@:.%+6@7@ .......8@9@0@        ",
"          a@b@c@d@e@q ...... .I I ..I t. .......f@g@h@          ",
"              i@j@k@........................l@-@m@n@            ",
"                o@p@q@r@s@............t@u@v@w@x@                ",
"                    y@z@A@B@C@D@D@-@!.E@F@-+                    ",
"                          G@H@;@I@J@K@                          "};
